<?xml version="1.0" encoding="UTF-8" standalone="no"?>
<svg
   id="Lampada"
   viewBox="0 0 600 900.00003"
   version="1.1"
   sodipodi:docname="lampada.svg"
   width="600"
   height="900"
   inkscape:version="1.1 (c68e22c387, 2021-05-23)"
   xmlns:inkscape="http://www.inkscape.org/namespaces/inkscape"
   xmlns:sodipodi="http://sodipodi.sourceforge.net/DTD/sodipodi-0.dtd"
   xmlns="http://www.w3.org/2000/svg"
   xmlns:svg="http://www.w3.org/2000/svg">
  <sodipodi:namedview
     id="namedview171"
     pagecolor="#ffffff"
     bordercolor="#666666"
     borderopacity="1.0"
     inkscape:pageshadow="2"
     inkscape:pageopacity="0.0"
     inkscape:pagecheckerboard="0"
     showgrid="false"
     height="900px"
     inkscape:zoom="0.44872848"
     inkscape:cx="948.2349"
     inkscape:cy="500.30255"
     inkscape:window-width="1366"
     inkscape:window-height="705"
     inkscape:window-x="-8"
     inkscape:window-y="-8"
     inkscape:window-maximized="1"
     inkscape:current-layer="Lampada" />
  <defs
     id="defs4">
    <style
       id="style2">.cls-1{fill:#ff0;}.cls-2{fill:#d1ccc7;}.cls-3{fill:#fcee21;}.cls-4{fill:#ff6;}.cls-5{fill:#696664;}.cls-6{fill:#ffffa3;}.cls-7{fill:#150800;}.cls-8{fill:#b3a1bf;}</style>
  </defs>
  <path
     class="cls-5"
     d="m 220.611,240.51807 a 6.49,6.49 0 0 0 -5.39,-3 l -1.18,-4 a 6.72,6.72 0 0 0 1.33,-8.78 l -0.08,-0.11 a 6.64,6.64 0 0 0 -4.75,-3 l -0.76,-2.6 a 4.16,4.16 0 0 0 -0.73,-1.4 l -0.4,-1.35 a 1.13,1.13 0 0 0 -0.56,-0.68 l -1.59,-5.46 a 7.41,7.41 0 0 1 1.31,-6.67 54.64,54.64 0 1 0 -60.54,17.84 7.34,7.34 0 0 1 4.65,4.88 l 2.87,9.77 -0.77,0.5 a 6.72,6.72 0 0 0 -2,9.29 l 0.08,0.11 a 6.71,6.71 0 0 0 6.56,3 l 1,3.49 -0.22,0.14 a 6.72,6.72 0 0 0 -2,9.29 l 0.08,0.12 a 6.72,6.72 0 0 0 6.39,3 27.3,27.3 0 0 0 2.28,3.62 6.51,6.51 0 0 0 0.15,6.8 l 0.31,0.47 a 6.86,6.86 0 0 0 9.29,1.86 l 1,-0.62 a 26.8,26.8 0 0 0 18.5,1.21 l 0.29,-0.08 1.43,-0.42 1.4,-0.41 v 0 l 0.29,-0.09 a 27,27 0 0 0 19.35,-26.77 l 0.81,-0.52 a 6.5,6.5 0 0 0 2,-9 z"
     id="path14" />
  <path
     class="cls-5"
     d="m 190.991,97.408073 a 6.14,6.14 0 0 0 7.77,-3.87 l 19.35,-57.81 a 6.15,6.15 0 0 0 -3.87,-7.78 v 0 a 6.15,6.15 0 0 0 -7.74,3.88 l -19.35,57.81 a 6.14,6.14 0 0 0 3.84,7.77 z"
     id="path16" />
  <path
     class="cls-5"
     d="m 267.501,67.408073 v 0 a 6.14,6.14 0 0 0 -8.59,-1.32 l -49.14,36.089997 a 6.14,6.14 0 0 0 -1.31,8.58 v 0 a 6.14,6.14 0 0 0 8.58,1.32 l 49.14,-36.089997 a 6.14,6.14 0 0 0 1.32,-8.58 z"
     id="path18" />
  <path
     class="cls-5"
     d="m 162.761,93.918073 a 6.15,6.15 0 0 0 7.65,4.12 v 0 a 6.15,6.15 0 0 0 4.12,-7.65 l -17.51,-58.4 a 6.1439767,6.1439767 0 0 0 -11.77,3.53 z"
     id="path20" />
  <rect
     class="cls-2"
     x="-1.9032797"
     y="297.55051"
     width="68.459999"
     height="13.58"
     rx="6.7199998"
     transform="rotate(-32.77)"
     id="rect22" />
  <rect
     class="cls-2"
     x="-1.761125"
     y="313.98547"
     width="64.199997"
     height="13.58"
     rx="6.5100002"
     transform="rotate(-32.77)"
     id="rect24" />
  <path
     class="cls-2"
     d="m 160.581,230.96807 -0.9,0.58 a 6.72,6.72 0 0 0 -2,9.29 l 0.08,0.12 a 6.72,6.72 0 0 0 6.66,3 z"
     id="path26" />
  <path
     class="cls-2"
     d="m 204.171,272.46807 -2.82,0.83 a 27,27 0 0 1 -33.48,-18.26 l -7.28,-24.73 a 4.07,4.07 0 0 1 2.77,-5.07 l 46.72,-13.74 a 4.08,4.08 0 0 1 5.07,2.77 l 7.28,24.77 a 27,27 0 0 1 -18.26,33.43 z"
     id="path28" />
  <path
     class="cls-2"
     d="m 203.871,272.55807 -2.82,0.83 a 27,27 0 0 1 -33.47,-18.26 l -8.08,-27.61 a 1.12,1.12 0 0 1 0.76,-1.4 l 52.4,-15.41 a 1.14,1.14 0 0 1 1.4,0.76 l 8.12,27.62 a 27,27 0 0 1 -18.31,33.47 z"
     id="path30" />
  <g
     id="bulbo"
     transform="translate(-407.819,-283.02193)">
    <path
       class="cls-3"
       d="m 280.21,175.05 a 54.65,54.65 0 1 0 -70.07,67.14 7.32,7.32 0 0 1 4.65,4.87 l 3.54,12 v 0 l 54.56,-16.05 v 0 l -3.54,-12 a 7.39,7.39 0 0 1 1.31,-6.67 54.56,54.56 0 0 0 9.55,-49.29 z"
       transform="translate(350.32,257.33)"
       id="path32" />
    <g
       id="Reflexo">
      <circle
         class="cls-1"
         cx="579.31"
         cy="431.13"
         r="35.130001"
         id="circle34" />
      <circle
         class="cls-4"
         cx="582.97998"
         cy="424.39999"
         r="27.280001"
         id="circle36" />
      <circle
         class="cls-6"
         cx="585.19"
         cy="417.23001"
         r="21.030001"
         id="circle38" />
    </g>
  </g>
  <path
     class="cls-7"
     d="m 166.331,221.96807 a 45.22,45.22 0 0 0 2.38,-21.6 c -0.93,-7.59 -3.27,-14.88 -5.74,-22.09 -0.91,-2.67 -1.72,-5.86 -3.95,-7.77 a 4.89,4.89 0 0 0 -7.14,0.76 c -1.94,2.42 -1.62,5.78 -0.38,8.45 a 12.37,12.37 0 0 0 6.91,6.07 26.26,26.26 0 0 0 10.52,1.46 43.82,43.82 0 0 0 10.08,-1.33 c 6.16,-1.72 11,-6.45 11.55,-13 0.43,-5.22 -3.23,-12.28 -9.17,-12.33 a 6.13,6.13 0 0 0 -5.94,5 c -0.65,3.34 1.06,7.11 2.32,10.13 a 76.63,76.63 0 0 0 11.65,18.59 c 2.35,2.9 4.82,5.69 7.31,8.46 a 58.81,58.81 0 0 0 8.59,8.4 c 1.55,1.15 3.05,-1.45 1.51,-2.59 a 46.61,46.61 0 0 1 -6.58,-6.37 c -1.85,-2.05 -3.7,-4.11 -5.5,-6.2 a 104.56,104.56 0 0 1 -9.91,-13.13 63.21,63.21 0 0 1 -3.83,-7.17 c -1.13,-2.53 -2.54,-5.57 -2.69,-8.37 -0.12,-2.39 1.75,-4.34 4.18,-3.54 a 8,8 0 0 1 4.47,4.76 c 1.89,4.82 -0.61,10.37 -4.92,12.91 a 20.63,20.63 0 0 1 -7.94,2.39 44.94,44.94 0 0 1 -9.2,0.35 c -4.88,-0.44 -11.61,-2.9 -11.41,-8.9 0.06,-2.11 2.06,-4.2 3.89,-2.23 1.83,1.97 2.36,5 3.17,7.35 2.25,6.63 4.41,13.41 5.22,20.4 a 43,43 0 0 1 -2.34,20.33 c -0.68,1.81 2.22,2.59 2.9,0.8 z"
     id="path42" />
  <rect
     class="cls-2"
     x="-2.2015796"
     y="297.46866"
     width="68.459999"
     height="13.58"
     rx="6.7199998"
     transform="rotate(-32.77)"
     id="rect44" />
  <rect
     class="cls-2"
     x="-2.0610118"
     y="313.90903"
     width="64.199997"
     height="13.58"
     rx="6.5100002"
     transform="rotate(-32.77)"
     id="rect46" />
  <path
     class="cls-2"
     d="m 160.291,231.05807 -0.91,0.58 a 6.72,6.72 0 0 0 -2,9.29 l 0.07,0.12 a 6.71,6.71 0 0 0 6.67,3 z"
     id="path48" />
  <path
     class="cls-2"
     d="m 203.871,272.55807 -2.82,0.83 a 27,27 0 0 1 -33.47,-18.26 l -7.29,-24.77 a 4.1,4.1 0 0 1 2.77,-5.08 l 46.72,-13.73 a 4.08,4.08 0 0 1 5.07,2.76 l 7.29,24.78 a 27,27 0 0 1 -18.27,33.47 z"
     id="path50" />
  <path
     class="cls-2"
     d="m 203.581,272.64807 -2.82,0.83 a 27,27 0 0 1 -33.48,-18.27 l -8.12,-27.61 a 1.12,1.12 0 0 1 0.77,-1.39 l 52.4,-15.41 a 1.11,1.11 0 0 1 1.39,0.76 l 8.12,27.61 a 27,27 0 0 1 -18.26,33.48 z"
     id="path52" />
  <rect
     class="cls-8"
     x="3.8450723"
     y="307.95279"
     width="55.549999"
     height="2.4300001"
     rx="1.22"
     transform="rotate(-32.77)"
     id="rect54" />
  <rect
     class="cls-8"
     x="17.62096"
     y="325.37686"
     width="36.150002"
     height="2.4300001"
     rx="1.22"
     transform="rotate(-32.77)"
     id="rect56" />
  <rect
     class="cls-8"
     x="6.1917291"
     y="291.9928"
     width="31.49"
     height="2.4300001"
     rx="1.22"
     transform="rotate(-32.77)"
     id="rect58" />
  <rect
     class="cls-1"
     x="-25.47521"
     y="209.46245"
     width="73.25"
     height="12.28"
     rx="6.1399999"
     transform="rotate(-71.49)"
     id="rect60" />
  <rect
     class="cls-1"
     x="109.6182"
     y="205.8127"
     width="73.25"
     height="12.28"
     rx="6.1399999"
     transform="rotate(-36.29)"
     id="rect62" />
  <rect
     class="cls-1"
     x="135.45938"
     y="66.543747"
     width="12.28"
     height="73.25"
     rx="6.1399999"
     transform="rotate(-16.69)"
     id="rect64" />
  <path
     class="cls-5"
     d="m 503.501,357.90807 a 9.22,9.22 0 0 0 -7.64,-4.23 l -1.67,-5.68 a 9.53,9.53 0 0 0 1.88,-12.44 l -0.11,-0.17 a 9.5,9.5 0 0 0 -6.74,-4.28 l -1.08,-3.68 a 5.73,5.73 0 0 0 -1,-2 l -0.56,-1.92 a 1.6,1.6 0 0 0 -0.8,-1 l -2.28,-7.74 a 10.51,10.51 0 0 1 1.86,-9.47 77.52,77.52 0 1 0 -85.85,25.3 10.4,10.4 0 0 1 6.6,6.92 l 4.07,13.85 -1.1,0.71 a 9.54,9.54 0 0 0 -2.93,13.23 l 0.11,0.17 a 9.54,9.54 0 0 0 9.3,4.28 l 1.46,4.94 -0.31,0.2 a 9.54,9.54 0 0 0 -2.86,13.18 l 0.11,0.17 a 9.52,9.52 0 0 0 9.07,4.3 37.93,37.93 0 0 0 3.23,5.13 9.22,9.22 0 0 0 0.24,9.63 l 0.43,0.67 a 9.23,9.23 0 0 0 10.5,3.82 9.34,9.34 0 0 0 2.68,-1.17 l 1.36,-0.88 a 38.15,38.15 0 0 0 26.25,1.72 l 0.41,-0.12 2,-0.6 2,-0.58 v 0 l 0.42,-0.13 a 38.26,38.26 0 0 0 27.44,-38 l 1.15,-0.74 a 9.23,9.23 0 0 0 2.77,-12.76 z"
     id="path66" />
  <path
     class="cls-5"
     d="m 461.501,154.89807 a 8.71,8.71 0 0 0 11,-5.49 l 27.45,-81.999997 a 8.73,8.73 0 0 0 -5.5,-11 v 0 a 8.73,8.73 0 0 0 -11,5.5 l -27.45,81.999997 a 8.71,8.71 0 0 0 5.5,10.99 z"
     id="path68" />
  <path
     class="cls-5"
     d="m 569.941,112.30807 v 0 a 8.71,8.71 0 0 0 -12.18,-1.86 l -69.7,51.18 a 8.71,8.71 0 0 0 -1.87,12.18 v 0 a 8.71,8.71 0 0 0 12.18,1.87 l 69.7,-51.19 a 8.71,8.71 0 0 0 1.87,-12.18 z"
     id="path70" />
  <path
     class="cls-5"
     d="m 421.411,149.94807 a 8.72,8.72 0 0 0 10.85,5.84 v 0 a 8.7,8.7 0 0 0 5.84,-10.85 l -24.84,-82.829997 a 8.7114307,8.7114307 0 0 0 -16.69,5 z"
     id="path72" />
  <rect
     class="cls-2"
     x="148.45294"
     y="539.28314"
     width="97.120003"
     height="19.27"
     rx="9.54"
     transform="rotate(-32.77)"
     id="rect74" />
  <rect
     class="cls-2"
     x="148.65694"
     y="562.59692"
     width="91.07"
     height="19.27"
     rx="9.2399998"
     transform="rotate(-32.77)"
     id="rect76" />
  <path
     class="cls-2"
     d="m 418.321,344.35807 -1.28,0.83 a 9.54,9.54 0 0 0 -2.86,13.18 l 0.11,0.16 a 9.55,9.55 0 0 0 9.45,4.27 z"
     id="path78" />
  <path
     class="cls-2"
     d="m 480.151,403.23807 -4,1.17 a 38.25,38.25 0 0 1 -47.49,-25.9 l -10.33,-35.14 a 5.8,5.8 0 0 1 3.93,-7.2 l 66.24,-19.48 a 5.78,5.78 0 0 1 7.19,3.92 l 10.34,35.14 a 38.25,38.25 0 0 1 -25.88,47.49 z"
     id="path80" />
  <path
     class="cls-2"
     d="m 479.731,403.35807 -4,1.18 a 38.26,38.26 0 0 1 -47.49,-25.91 l -11.51,-39.17 a 1.59,1.59 0 0 1 1.08,-2 l 74.33,-21.85 a 1.59,1.59 0 0 1 2,1.08 l 11.52,39.16 a 38.25,38.25 0 0 1 -25.93,47.51 z"
     id="path82" />
  <g
     id="bulbo-2"
     data-name="bulbo"
     transform="translate(-407.819,-283.02193)">
    <path
       class="cls-3"
       d="m 564,254.28 a 77.52,77.52 0 1 0 -99.4,95.24 10.39,10.39 0 0 1 6.59,6.92 l 5,17.08 v 0 l 77.38,-22.75 v 0 l -5,-17.07 a 10.46,10.46 0 0 1 1.86,-9.47 77.42,77.42 0 0 0 13.57,-69.95 z"
       transform="translate(350.32,257.33)"
       id="path84" />
    <g
       id="Reflexo-2"
       data-name="Reflexo">
      <circle
         class="cls-1"
         cx="841.60999"
         cy="509.85001"
         r="49.84"
         id="circle86" />
      <circle
         class="cls-4"
         cx="846.83002"
         cy="500.29001"
         r="38.700001"
         id="circle88" />
      <circle
         class="cls-6"
         cx="849.96002"
         cy="490.12"
         r="29.83"
         id="circle90" />
    </g>
  </g>
  <path
     class="cls-7"
     d="m 425.861,331.42807 a 63.32,63.32 0 0 0 3.46,-29.73 c -1.19,-10.43 -4.32,-20.5 -7.7,-30.41 -1.34,-3.94 -2.42,-8.83 -5.52,-11.84 a 6.33,6.33 0 0 0 -9.59,0.55 c -2.75,3.41 -2.14,8.22 -0.26,11.88 a 17.34,17.34 0 0 0 10.08,8.13 39.48,39.48 0 0 0 14.9,1.66 57.52,57.52 0 0 0 14,-2.09 21.67,21.67 0 0 0 10.66,-6.86 19.54,19.54 0 0 0 4.38,-11.55 17,17 0 0 0 -4,-11.47 c -2.27,-2.75 -5.75,-4.95 -9.44,-4.5 a 8.18,8.18 0 0 0 -7,8 21,21 0 0 0 1.39,7 c 0.72,2.2 1.56,4.36 2.47,6.48 a 105.31,105.31 0 0 0 14.49,23.33 c 2.84,3.59 5.82,7.07 8.86,10.49 3.04,3.42 6.24,7.14 9.59,10.47 a 48.41,48.41 0 0 0 5.44,4.69 c 1.56,1.15 3.06,-1.45 1.52,-2.59 a 63.47,63.47 0 0 1 -9.29,-9 c -2.7,-3 -5.38,-6 -8,-9 a 145.43,145.43 0 0 1 -14.51,-19.36 83.69,83.69 0 0 1 -5.58,-10.76 c -0.83,-2 -1.57,-4 -2.22,-6 a 16.62,16.62 0 0 1 -1.14,-6.06 5.06,5.06 0 0 1 6.45,-4.58 c 3.16,0.88 5.55,3.83 6.83,6.71 3.06,6.88 -0.26,15.28 -6.41,19.2 a 28.47,28.47 0 0 1 -11.42,3.75 64.77,64.77 0 0 1 -13.12,0.66 c -7.48,-0.49 -17.62,-4 -17.55,-13.12 0,-2.86 2.64,-6.67 5.75,-4.48 2.94,2.05 3.88,6.72 5,9.89 5.89,17.2 11.27,35.36 6.59,53.54 a 55.29,55.29 0 0 1 -2,6.13 c -0.69,1.81 2.21,2.59 2.89,0.8 z"
     id="path94" />
  <rect
     class="cls-2"
     x="148.03731"
     y="539.1662"
     width="97.120003"
     height="19.27"
     rx="9.54"
     transform="rotate(-32.77)"
     id="rect96" />
  <rect
     class="cls-2"
     x="148.23587"
     y="562.47833"
     width="91.07"
     height="19.27"
     rx="9.2399998"
     transform="rotate(-32.77)"
     id="rect98" />
  <path
     class="cls-2"
     d="m 417.901,344.48807 -1.28,0.82 a 9.54,9.54 0 0 0 -2.86,13.18 l 0.11,0.17 a 9.52,9.52 0 0 0 9.45,4.26 z"
     id="path100" />
  <path
     class="cls-2"
     d="m 479.731,403.35807 -4,1.18 a 38.26,38.26 0 0 1 -47.49,-25.91 l -10.33,-35.14 a 5.79,5.79 0 0 1 3.93,-7.19 l 66.27,-19.49 a 5.8,5.8 0 0 1 7.2,3.92 l 10.33,35.14 a 38.25,38.25 0 0 1 -25.91,47.49 z"
     id="path102" />
  <path
     class="cls-2"
     d="m 479.311,403.47807 -4,1.18 a 38.24,38.24 0 0 1 -47.48,-25.91 l -11.52,-39.17 a 1.59,1.59 0 0 1 1.08,-2 l 74.33,-21.85 a 1.59,1.59 0 0 1 2,1.08 l 11.52,39.17 a 38.25,38.25 0 0 1 -25.93,47.5 z"
     id="path104" />
  <rect
     class="cls-8"
     x="156.60381"
     y="554.04517"
     width="78.800003"
     height="3.45"
     rx="1.73"
     transform="rotate(-32.77)"
     id="rect106" />
  <rect
     class="cls-8"
     x="175.53696"
     y="578.37646"
     width="51.208157"
     height="3.4451666"
     rx="1.7275764"
     transform="rotate(-32.735226)"
     id="rect108"
     style="stroke-width:0.998599" />
  <rect
     class="cls-8"
     x="159.9442"
     y="531.38422"
     width="44.669998"
     height="3.45"
     rx="1.73"
     transform="rotate(-32.77)"
     id="rect110" />
  <rect
     class="cls-1"
     x="8.4912252"
     y="483.12735"
     width="103.9"
     height="17.42"
     rx="8.71"
     transform="rotate(-71.49)"
     id="rect112" />
  <rect
     class="cls-1"
     x="299.17111"
     y="418.20248"
     width="103.9"
     height="17.42"
     rx="8.71"
     transform="rotate(-36.29)"
     id="rect114" />
  <rect
     class="cls-1"
     x="369.84659"
     y="165.14449"
     width="17.42"
     height="103.9"
     rx="8.71"
     transform="rotate(-16.69)"
     id="rect116" />
  <path
     class="cls-5"
     d="m 304.431,792.30807 a 13.94,13.94 0 0 0 -11.57,-6.41 l -2.53,-8.59 a 14.44,14.44 0 0 0 2.85,-18.85 l -0.17,-0.25 a 14.39,14.39 0 0 0 -10.2,-6.48 l -1.64,-5.57 a 8.57,8.57 0 0 0 -1.57,-3 l -0.85,-2.9 a 2.43,2.43 0 0 0 -1.21,-1.46 l -3.45,-11.73 a 15.87,15.87 0 0 1 2.82,-14.33 117.38,117.38 0 0 0 -123.34,-185.9 c -64.000002,17.7 -100.740004,85.64 -80.540002,148.89 a 117.2,117.2 0 0 0 73.900002,75.34 15.77,15.77 0 0 1 10,10.48 l 6.17,21 -1.68,1.08 a 14.43,14.43 0 0 0 -4.32,20 l 0.16,0.25 a 14.44,14.44 0 0 0 14.07,6.43 l 2.2,7.48 -0.47,0.3 a 14.44,14.44 0 0 0 -4.32,20 l 0.16,0.25 a 14.45,14.45 0 0 0 13.74,6.52 57.87,57.87 0 0 0 4.9,7.77 14,14 0 0 0 0.32,14.59 l 0.65,1 a 14.79,14.79 0 0 0 20,4 l 2.06,-1.33 a 57.68,57.68 0 0 0 39.74,2.6 l 0.63,-0.18 3.07,-0.9 3,-0.89 v 0 l 0.63,-0.18 a 57.93,57.93 0 0 0 41.56,-57.49 l 1.74,-1.12 a 14,14 0 0 0 4.19,-19.33 z"
     id="path118" />
  <path
     class="cls-5"
     d="m 240.811,484.97807 a 13.17,13.17 0 0 0 16.69,-8.32 l 41.56,-124.16 a 13.19,13.19 0 0 0 -8.32,-16.7 v 0 a 13.18,13.18 0 0 0 -16.69,8.32 l -41.55,124.19 a 13.19,13.19 0 0 0 8.31,16.67 z"
     id="path120" />
  <path
     class="cls-5"
     d="m 405.071,420.53807 v 0 a 13.19,13.19 0 0 0 -18.44,-2.82 l -105.54,77.5 a 13.19,13.19 0 0 0 -2.82,18.44 v 0 a 13.19,13.19 0 0 0 18.44,2.82 l 105.53,-77.5 a 13.19,13.19 0 0 0 2.83,-18.44 z"
     id="path122" />
  <path
     class="cls-5"
     d="m 180.191,477.47807 a 13.2,13.2 0 0 0 16.43,8.83 v 0 a 13.2,13.2 0 0 0 8.88,-16.41 l -37.65,-125.42 a 13.191184,13.191184 0 0 0 -25.27,7.58 z"
     id="path124" />
  <rect
     class="cls-2"
     x="-295.77939"
     y="779.28345"
     width="147.03999"
     height="29.17"
     rx="14.44"
     transform="rotate(-32.77)"
     id="rect126" />
  <rect
     class="cls-2"
     x="-295.47772"
     y="814.58868"
     width="137.88"
     height="29.17"
     rx="13.98"
     transform="rotate(-32.77)"
     id="rect128" />
  <path
     class="cls-2"
     d="m 175.501,771.83807 -1.94,1.25 a 14.42,14.42 0 0 0 -4.33,20 l 0.16,0.25 a 14.43,14.43 0 0 0 14.31,6.46 z"
     id="path130" />
  <path
     class="cls-2"
     d="m 269.121,860.96807 -6.06,1.79 a 57.91,57.91 0 0 1 -71.89,-39.23 l -15.67,-53.22 a 8.78,8.78 0 0 1 6,-10.87 l 100.35,-29.51 a 8.78,8.78 0 0 1 10.89,6 l 15.65,53.2 a 57.91,57.91 0 0 1 -39.27,71.84 z"
     id="path132" />
  <path
     class="cls-2"
     d="m 268.501,861.15807 -6.06,1.78 a 57.92,57.92 0 0 1 -71.94,-39.22 l -17.4,-59.31 a 2.4,2.4 0 0 1 1.63,-3 l 112.55,-33.1 a 2.4,2.4 0 0 1 3,1.63 l 17.43,59.37 a 57.91,57.91 0 0 1 -39.21,71.85 z"
     id="path134" />
  <g
     id="bulbo-3"
     data-name="bulbo"
     transform="translate(-407.819,-283.02193)">
    <path
       class="cls-3"
       d="m 366.45,622.24 a 117.37,117.37 0 0 0 -143.85,-80 c -64,17.7 -100.74,85.63 -80.55,148.89 a 117.26,117.26 0 0 0 73.95,75.31 15.74,15.74 0 0 1 10,10.48 l 7.6,25.85 v 0 l 117.17,-34.46 v 0 l -7.6,-25.86 a 15.87,15.87 0 0 1 2.82,-14.33 117.21,117.21 0 0 0 20.46,-105.88 z"
       transform="translate(350.32,257.33)"
       id="path136" />
    <g
       id="Reflexo-3"
       data-name="Reflexo">
      <circle
         class="cls-1"
         cx="606.75"
         cy="876.90002"
         r="75.459999"
         id="circle138" />
      <circle
         class="cls-4"
         cx="614.65002"
         cy="862.42999"
         r="58.59"
         id="circle140" />
      <circle
         class="cls-6"
         cx="619.39001"
         cy="847.03998"
         r="45.16"
         id="circle142" />
    </g>
  </g>
  <path
     class="cls-7"
     d="m 186.191,752.04807 a 95.22,95.22 0 0 0 5.31,-44.26 c -1.68,-15.37 -6.22,-30.23 -11.16,-44.83 -1.19,-3.53 -2.33,-7.1 -3.68,-10.58 a 26.37,26.37 0 0 0 -4.3,-7.81 9.58,9.58 0 0 0 -7,-3.59 9.3,9.3 0 0 0 -7,3.54 c -4,4.83 -3.1,11.73 -0.48,17 3,6 8.62,10 14.84,12.13 7.12,2.47 14.84,2.9 22.3,2.51 6.92,-0.35 14.05,-1 20.7,-3 6.18,-1.86 12,-5.09 16.08,-10.16 a 28.77,28.77 0 0 0 6.52,-17 25,25 0 0 0 -5.75,-16.8 c -3.37,-4.1 -8.55,-7.45 -14.06,-6.62 -6.38,1 -10,7.11 -9.48,13.23 a 43.45,43.45 0 0 0 2.62,10.32 q 1.67,4.78 3.74,9.39 c 5.6,12.49 13.36,23.85 21.87,34.52 4.16,5.22 8.51,10.27 12.93,15.26 4.69,5.29 9.33,10.67 14.35,15.64 a 70,70 0 0 0 8,6.9 c 1.56,1.15 3.06,-1.46 1.52,-2.59 -5.45,-4 -10,-9 -14.53,-14 -4.18,-4.63 -8.35,-9.27 -12.41,-14 -8.09,-9.4 -15.79,-19.2 -22.15,-29.87 a 122.13,122.13 0 0 1 -8.49,-16.87 c -1.17,-2.89 -2.22,-5.83 -3.13,-8.8 -1,-3.16 -1.94,-6.67 -1.07,-10 a 8.43,8.43 0 0 1 11.22,-5.71 c 4.85,1.78 8.55,6.57 10.34,11.26 4.07,10.71 -1.06,23.19 -10.52,29.17 -5.43,3.44 -11.8,5 -18.1,5.79 a 95.59,95.59 0 0 1 -20.63,0.82 c -6.27,-0.54 -12.82,-2.07 -18,-5.79 -4.74,-3.38 -8.2,-9.12 -8,-15.05 a 9,9 0 0 1 3,-6.74 5.44,5.44 0 0 1 6.39,-0.72 c 2.24,1.31 3.64,3.7 4.73,6 a 78.32,78.32 0 0 1 3.19,8.5 c 4.66,13.58 9.2,27.3 11.6,41.49 2.32,13.68 2.29,27.73 -1.17,41.22 a 87.28,87.28 0 0 1 -3,9.33 c -0.69,1.8 2.21,2.59 2.9,0.8 z"
     id="path146" />
  <rect
     class="cls-2"
     x="-296.40976"
     y="779.10449"
     width="147.03999"
     height="29.17"
     rx="14.44"
     transform="rotate(-32.77)"
     id="rect148" />
  <rect
     class="cls-2"
     x="-296.10806"
     y="814.39972"
     width="137.88"
     height="29.17"
     rx="13.98"
     transform="rotate(-32.77)"
     id="rect150" />
  <path
     class="cls-2"
     d="m 174.871,772.01807 -1.94,1.29 a 14.44,14.44 0 0 0 -4.32,20 l 0.16,0.25 a 14.46,14.46 0 0 0 14.31,6.46 z"
     id="path152" />
  <path
     class="cls-2"
     d="m 268.501,861.15807 -6.06,1.78 a 57.92,57.92 0 0 1 -71.94,-39.22 l -15.64,-53.2 a 8.78,8.78 0 0 1 5.94,-10.9 l 100.35,-29.5 a 8.77,8.77 0 0 1 10.89,5.94 l 15.67,53.25 a 57.91,57.91 0 0 1 -39.21,71.85 z"
     id="path154" />
  <path
     class="cls-2"
     d="m 267.851,861.30807 -6.06,1.78 a 57.91,57.91 0 0 1 -71.89,-39.23 l -17.4,-59.26 a 2.43,2.43 0 0 1 1.64,-3 l 112.5,-33.09 a 2.42,2.42 0 0 1 3,1.64 l 17.44,59.3 a 57.92,57.92 0 0 1 -39.23,71.86 z"
     id="path156" />
  <rect
     class="cls-8"
     x="-283.4411"
     y="801.63257"
     width="119.31"
     height="5.23"
     rx="2.6099999"
     transform="rotate(-32.77)"
     id="rect158" />
  <rect
     class="cls-8"
     x="-253.84695"
     y="839.02338"
     width="77.639999"
     height="5.23"
     rx="2.6099999"
     transform="rotate(-32.77)"
     id="rect160" />
  <rect
     class="cls-8"
     x="-278.38858"
     y="767.32465"
     width="67.639999"
     height="5.23"
     rx="2.6099999"
     transform="rotate(-32.77)"
     id="rect162" />
  <rect
     class="cls-1"
     x="-370.01721"
     y="376.79663"
     width="157.32001"
     height="26.379999"
     rx="13.19"
     transform="rotate(-71.49)"
     id="rect164" />
  <rect
     class="cls-1"
     x="-64.339119"
     y="564.04565"
     width="157.32001"
     height="26.379999"
     rx="13.19"
     transform="rotate(-36.29)"
     id="rect166" />
  <rect
     class="cls-1"
     x="49.45953"
     y="358.42032"
     width="26.379999"
     height="157.32001"
     rx="13.19"
     transform="rotate(-16.69)"
     id="rect168" />
</svg>
